<svg xmlns="http://www.w3.org/2000/svg" xmlns:xlink="http://www.w3.org/1999/xlink" width="1120" height="739.2"><g transform="translate(0 0)"><path d="M0 0h1120v739.2H0z" fill="#fff"/><path d="M80 79.48c0-2.77 2.24-5 5-5h190c2.76 0 5 2.23 5 5v134.5c0 2.76-2.24 5-5 5H85c-2.76 0-5-2.24-5-5z" fill="#fff"/><path d="M80 74.48h200v40H80z" fill="#ccc"/><path d="M80 79.48c0-2.77 2.24-5 5-5h190c2.76 0 5 2.23 5 5v134.5c0 2.76-2.24 5-5 5H85c-2.76 0-5-2.24-5-5zM80 114.48h200" stroke="#3d4752" stroke-width="2" fill="none"/><use xlink:href="#a" transform="matrix(1,0,0,1,90,74.47500000000002) translate(10 23.712)"/><use xlink:href="#b" transform="matrix(1,0,0,1,85,116.97500000000002) translate(10 23.712)"/><use xlink:href="#c" transform="matrix(1,0,0,1,85,116.97500000000002) translate(73.828 23.712)"/><use xlink:href="#b" transform="matrix(1,0,0,1,85,150.97500000000002) translate(10 23.712)"/><use xlink:href="#d" transform="matrix(1,0,0,1,85,150.97500000000002) translate(73.828 23.712)"/><use xlink:href="#e" transform="matrix(1,0,0,1,85,184.97500000000002) translate(10 23.712)"/><use xlink:href="#c" transform="matrix(1,0,0,1,85,184.97500000000002) translate(75.142 23.712)"/><path d="M420 79.73c0-2.77 2.24-5 5-5h190c2.76 0 5 2.23 5 5v134.5c0 2.76-2.24 5-5 5H425c-2.76 0-5-2.24-5-5z" fill="#fff"/><path d="M420 74.73h200v40H420z" fill="#ccc"/><path d="M420 79.73c0-2.77 2.24-5 5-5h190c2.76 0 5 2.23 5 5v134.5c0 2.76-2.24 5-5 5H425c-2.76 0-5-2.24-5-5zM420 114.73h200" stroke="#3d4752" stroke-width="2" fill="none"/><use xlink:href="#f" transform="matrix(1,0,0,1,430,74.72500000000002) translate(10 23.712)"/><use xlink:href="#b" transform="matrix(1,0,0,1,425,117.22500000000002) translate(10 23.712)"/><use xlink:href="#c" transform="matrix(1,0,0,1,425,117.22500000000002) translate(73.828 23.712)"/><use xlink:href="#b" transform="matrix(1,0,0,1,425,151.22500000000002) translate(10 23.712)"/><use xlink:href="#d" transform="matrix(1,0,0,1,425,151.22500000000002) translate(73.828 23.712)"/><use xlink:href="#e" transform="matrix(1,0,0,1,425,185.22500000000002) translate(10 23.712)"/><use xlink:href="#c" transform="matrix(1,0,0,1,425,185.22500000000002) translate(75.142 23.712)"/><path d="M760 80.23c0-2.77 2.24-5 5-5h190c2.76 0 5 2.23 5 5v134.5c0 2.76-2.24 5-5 5H765c-2.76 0-5-2.24-5-5z" fill="#fff"/><path d="M760 75.23h200v40H760z" fill="#ccc"/><path d="M760 80.23c0-2.77 2.24-5 5-5h190c2.76 0 5 2.23 5 5v134.5c0 2.76-2.24 5-5 5H765c-2.76 0-5-2.24-5-5zM760 115.23h200" stroke="#3d4752" stroke-width="2" fill="none"/><use xlink:href="#g" transform="matrix(1,0,0,1,770,75.22500000000002) translate(10 23.712)"/><use xlink:href="#h" transform="matrix(1,0,0,1,770,75.22500000000002) translate(56.818000000000005 23.712)"/><use xlink:href="#i" transform="matrix(1,0,0,1,770,75.22500000000002) translate(104.194 23.712)"/><use xlink:href="#b" transform="matrix(1,0,0,1,765,117.72500000000002) translate(10 23.712)"/><use xlink:href="#c" transform="matrix(1,0,0,1,765,117.72500000000002) translate(73.828 23.712)"/><use xlink:href="#j" transform="matrix(1,0,0,1,765,151.72500000000002) translate(10 23.712)"/><use xlink:href="#c" transform="matrix(1,0,0,1,765,151.72500000000002) translate(54.622 23.712)"/><use xlink:href="#j" transform="matrix(1,0,0,1,765,185.72500000000002) translate(10 23.712)"/><use xlink:href="#k" transform="matrix(1,0,0,1,765,185.72500000000002) translate(54.622 23.712)"/><use xlink:href="#c" transform="matrix(1,0,0,1,765,185.72500000000002) translate(100.918 23.712)"/><path d="M281 153.2h138" stroke="#f78c20" stroke-width="2" fill="none"/><path d="M281 154.2h-1v-2h1zM419.45 144.1l-18.2 9.1 18.2 9.1-.9 1.8-21.8-10.9 21.8-10.9z" fill="#f78c20"/><path d="M400 163.2h-2v-20h2z" fill="#f78c20"/><path d="M621 152.54h68.96c.02 0 .04-.02.04-.04s.02-.04.04-.04H759" stroke="#f78c20" stroke-width="2" fill="none"/><path d="M621 153.54h-1v-2h1zM759.45 143.36l-18.2 9.1 18.2 9.1-.9 1.8-21.8-10.9 21.8-10.9z" fill="#f78c20"/><path d="M740 162.46h-2v-20h2z" fill="#f78c20"/><path d="M80 319.48c0-2.77 2.24-5 5-5h190c2.76 0 5 2.23 5 5v100.5c0 2.76-2.24 5-5 5H85c-2.76 0-5-2.24-5-5z" fill="#fff"/><path d="M80 314.48h200v40H80z" fill="#ccc"/><path d="M80 319.48c0-2.77 2.24-5 5-5h190c2.76 0 5 2.23 5 5v100.5c0 2.76-2.24 5-5 5H85c-2.76 0-5-2.24-5-5zM80 354.48h200" stroke="#3d4752" stroke-width="2" fill="none"/><use xlink:href="#l" transform="matrix(1,0,0,1,90,314.475) translate(10 23.712)"/><use xlink:href="#m" transform="matrix(1,0,0,1,85,356.975) translate(10 23.712)"/><use xlink:href="#c" transform="matrix(1,0,0,1,85,356.975) translate(73.52199999999999 23.712)"/><use xlink:href="#e" transform="matrix(1,0,0,1,85,390.975) translate(10 23.712)"/><use xlink:href="#c" transform="matrix(1,0,0,1,85,390.975) translate(75.142 23.712)"/><path d="M180 218.98v94.37" stroke="#f78c20" stroke-width="2" fill="none"/><path d="M190.9 312.9l-1.8.9-9.1-18.2-9.1 18.2-1.8-.9 10.9-21.78z" fill="#f78c20"/><path d="M190 294.35h-20v-2h20z" fill="#f78c20"/><path d="M420 315.73c0-2.77 2.24-5 5-5h190c2.76 0 5 2.23 5 5v168.5c0 2.76-2.24 5-5 5H425c-2.76 0-5-2.24-5-5z" fill="#fff"/><path d="M420 310.73h200v40H420z" fill="#ccc"/><path d="M420 315.73c0-2.77 2.24-5 5-5h190c2.76 0 5 2.23 5 5v168.5c0 2.76-2.24 5-5 5H425c-2.76 0-5-2.24-5-5zM420 350.73h200" stroke="#3d4752" stroke-width="2" fill="none"/><use xlink:href="#g" transform="matrix(1,0,0,1,430,310.725) translate(10 23.712)"/><use xlink:href="#n" transform="matrix(1,0,0,1,430,310.725) translate(56.818000000000005 23.712)"/><use xlink:href="#j" transform="matrix(1,0,0,1,425,353.225) translate(10 23.712)"/><use xlink:href="#k" transform="matrix(1,0,0,1,425,353.225) translate(54.622 23.712)"/><use xlink:href="#c" transform="matrix(1,0,0,1,425,353.225) translate(100.918 23.712)"/><use xlink:href="#m" transform="matrix(1,0,0,1,425,387.225) translate(10 23.712)"/><use xlink:href="#c" transform="matrix(1,0,0,1,425,387.225) translate(73.52199999999999 23.712)"/><use xlink:href="#j" transform="matrix(1,0,0,1,425,421.225) translate(10 23.712)"/><use xlink:href="#c" transform="matrix(1,0,0,1,425,421.225) translate(54.622 23.712)"/><use xlink:href="#m" transform="matrix(1,0,0,1,425,455.225) translate(10 23.712)"/><use xlink:href="#o" transform="matrix(1,0,0,1,425,455.225) translate(73.52199999999999 23.712)"/><path d="M760 319.73c0-2.77 2.24-5 5-5h190c2.76 0 5 2.23 5 5v134.5c0 2.76-2.24 5-5 5H765c-2.76 0-5-2.24-5-5z" fill="#fff"/><path d="M760 314.73h200v40H760z" fill="#ccc"/><path d="M760 319.73c0-2.77 2.24-5 5-5h190c2.76 0 5 2.23 5 5v134.5c0 2.76-2.24 5-5 5H765c-2.76 0-5-2.24-5-5zM760 354.73h200" stroke="#3d4752" stroke-width="2" fill="none"/><use xlink:href="#p" transform="matrix(1,0,0,1,770,314.725) translate(10 23.712)"/><use xlink:href="#j" transform="matrix(1,0,0,1,765,357.225) translate(10 23.712)"/><use xlink:href="#c" transform="matrix(1,0,0,1,765,357.225) translate(54.622 23.712)"/><use xlink:href="#j" transform="matrix(1,0,0,1,765,391.225) translate(10 23.712)"/><use xlink:href="#d" transform="matrix(1,0,0,1,765,391.225) translate(54.622 23.712)"/><use xlink:href="#q" transform="matrix(1,0,0,1,765,425.225) translate(10 23.712)"/><use xlink:href="#c" transform="matrix(1,0,0,1,765,425.225) translate(114.90399999999997 23.712)"/><path d="M280 372.8h139" stroke="#f78c20" stroke-width="2" fill="none"/><path d="M301 382.8h-2v-20h2zM419.45 363.7l-18.2 9.1 18.2 9.1-.9 1.8-21.8-10.9 21.8-10.9z" fill="#f78c20"/><path d="M520 310.73V270.8c0-2.77 2.24-5 5-5h274.8c2.76 0 5-2.24 5-5v-39.93" stroke="#f78c20" stroke-width="2" fill="none"/><path d="M815.7 221.3l-10.9 21.8-10.9-21.8 1.8-.88 9.1 18.2 9.1-18.2z" fill="#f78c20"/><path d="M814.8 241.87h-20v-2h20z" fill="#f78c20"/><path d="M759 403.02H620" stroke="#f78c20" stroke-width="2" fill="none"/><path d="M760 404.02h-1v-2h1zM642.24 403.02l-21.8 10.9-.44-.9v-1.12l17.76-8.88-17.76-8.88v-1.12l.45-.9z" fill="#f78c20"/><path d="M641 413.02h-2v-20h2z" fill="#f78c20"/><path d="M760 559.23c0-2.77 2.24-5 5-5h190c2.76 0 5 2.23 5 5v100.5c0 2.76-2.24 5-5 5H765c-2.76 0-5-2.24-5-5z" fill="#fff"/><path d="M760 554.23h200v40H760z" fill="#ccc"/><path d="M760 559.23c0-2.77 2.24-5 5-5h190c2.76 0 5 2.23 5 5v100.5c0 2.76-2.24 5-5 5H765c-2.76 0-5-2.24-5-5zM760 594.23h200" stroke="#3d4752" stroke-width="2" fill="none"/><g><use xlink:href="#r" transform="matrix(1,0,0,1,770,554.225) translate(10 23.712)"/></g><g><use xlink:href="#q" transform="matrix(1,0,0,1,765,596.725) translate(10 23.712)"/><use xlink:href="#c" transform="matrix(1,0,0,1,765,596.725) translate(114.90399999999997 23.712)"/></g><g><use xlink:href="#s" transform="matrix(1,0,0,1,765,630.725) translate(10 23.712)"/><use xlink:href="#c" transform="matrix(1,0,0,1,765,630.725) translate(66.48400000000001 23.712)"/></g><path d="M960 412.1h45c2.76 0 5 2.24 5 5v152.6c0 2.75-2.24 5-5 5h-45" stroke="#f78c20" stroke-width="2" fill="none"/><path d="M971 422.1h-2v-20h2zM981 422.1h-2v-20h2zM971 584.7h-2v-20h2zM981 584.7h-2v-20h2z" fill="#f78c20"/><path d="M420 559.48c0-2.77 2.24-5 5-5h190c2.76 0 5 2.23 5 5v66.5c0 2.76-2.24 5-5 5H425c-2.76 0-5-2.24-5-5z" fill="#fff"/><path d="M420 554.48h200v40H420z" fill="#ccc"/><path d="M420 559.48c0-2.77 2.24-5 5-5h190c2.76 0 5 2.23 5 5v66.5c0 2.76-2.24 5-5 5H425c-2.76 0-5-2.24-5-5zM420 594.48h200" stroke="#3d4752" stroke-width="2" fill="none"/><g><use xlink:href="#t" transform="matrix(1,0,0,1,430,554.475) translate(10 23.712)"/></g><g><use xlink:href="#s" transform="matrix(1,0,0,1,425,596.975) translate(10 23.712)"/><use xlink:href="#c" transform="matrix(1,0,0,1,425,596.975) translate(66.48400000000001 23.712)"/></g><path d="M759 592.9H621" stroke="#f78c20" stroke-width="2" fill="none"/><path d="M760 593.9h-1v-2h1zM643.24 592.9l-21.8 10.9-.9-1.8 18.22-9.1-18.2-9.1.9-1.8z" fill="#f78c20"/><path d="M642 602.9h-2v-20h2z" fill="#f78c20"/><defs><path fill="#3d4752" d="M484-238C550-39 325 64 144-14 105-31 71-55 42-85l50-58c40 43 104 74 181 82 133 14 185-145 71-202-108-54-270-71-270-231 0-151 176-210 315-152 34 14 62 35 85 59l-45 54c-37-35-82-56-149-62-101-9-166 104-87 165 91 70 252 74 291 192" id="u"/><path fill="#3d4752" d="M224 12C112 12 76-61 75-178v-308h83v297c1 82 17 130 91 130 69 0 90-36 131-82v-345h82V0h-68l-7-76h-3c-42 46-81 88-160 88" id="v"/><path fill="#3d4752" d="M297 12c-57 0-97-28-135-56 3 81 2 165 2 249H82v-691h68l7 56h3c39-32 90-68 155-68 140 0 192 106 192 248 0 150-68 262-210 262zm-3-441c-58 0-90 33-130 66v255c34 29 69 51 119 51 100 0 139-86 139-193 0-101-29-179-128-179" id="w"/><path fill="#3d4752" d="M169 12c-67 0-86-42-87-110v-614h82v620c-2 29 15 42 41 34l11 62c-13 6-27 8-47 8" id="x"/><path fill="#3d4752" d="M181-639c0 30-26 53-57 53s-57-23-57-53c0-31 26-53 57-53s57 22 57 53zM82-486h82V0H82v-486" id="y"/><path fill="#3d4752" d="M279 12C129 6 46-87 46-242c0-148 77-256 218-256 148 0 205 117 191 273H127c4 97 64 171 162 171 51 0 87-18 121-38l29 54c-42 25-92 53-160 50zm107-291c7-109-70-183-170-143-53 21-83 73-90 143h260" id="z"/><path fill="#3d4752" d="M334-416c-89-26-142 29-170 104V0H82v-486h68l7 88h3c31-63 101-124 190-90" id="A"/><g id="a"><use transform="matrix(0.018,0,0,0.018,0,0)" xlink:href="#u"/><use transform="matrix(0.018,0,0,0.018,9.612,0)" xlink:href="#v"/><use transform="matrix(0.018,0,0,0.018,19.404,0)" xlink:href="#w"/><use transform="matrix(0.018,0,0,0.018,29.394,0)" xlink:href="#w"/><use transform="matrix(0.018,0,0,0.018,39.384,0)" xlink:href="#x"/><use transform="matrix(0.018,0,0,0.018,43.974000000000004,0)" xlink:href="#y"/><use transform="matrix(0.018,0,0,0.018,48.402,0)" xlink:href="#z"/><use transform="matrix(0.018,0,0,0.018,57.33,0)" xlink:href="#A"/></g><path fill="#3d4752" d="M248 12C114 10 43-95 47-242c4-146 72-256 211-256 65 0 96 26 136 56-6-85-3-179-4-270h83V0h-68l-7-57h-3c-35 32-83 69-147 69zm24-441c-97 0-138 83-140 186-2 104 39 186 134 186 59 0 90-30 124-67v-254c-35-31-64-51-118-51" id="B"/><path fill="#3d4752" d="M12-486h85c46 139 93 277 137 419h4c42-142 90-280 136-419h81L283 0h-96" id="C"/><path fill="#3d4752" d="M49 134c97 31 140-55 158-133L12-486h85c49 135 100 267 146 406h4c40-138 84-271 128-406h80L272 40c-31 99-101 199-239 159" id="D"/><g id="b"><use transform="matrix(0.018,0,0,0.018,0,0)" xlink:href="#B"/><use transform="matrix(0.018,0,0,0.018,9.989999999999998,0)" xlink:href="#z"/><use transform="matrix(0.018,0,0,0.018,18.918,0)" xlink:href="#x"/><use transform="matrix(0.018,0,0,0.018,23.508,0)" xlink:href="#y"/><use transform="matrix(0.018,0,0,0.018,27.936000000000003,0)" xlink:href="#C"/><use transform="matrix(0.018,0,0,0.018,36.269999999999996,0)" xlink:href="#z"/><use transform="matrix(0.018,0,0,0.018,45.19799999999999,0)" xlink:href="#A"/><use transform="matrix(0.018,0,0,0.018,51.785999999999994,0)" xlink:href="#D"/></g><g id="c"><use transform="matrix(0.018,0,0,0.018,0,0)" xlink:href="#y"/><use transform="matrix(0.018,0,0,0.018,4.428,0)" xlink:href="#B"/></g><path fill="#3d4752" d="M201 12C118 12 58-40 58-126c0-53 24-94 72-122s123-49 227-60c-1-72-27-121-100-122-60-1-108 28-145 52l-33-57c46-28 114-63 191-63 121 0 168 82 169 200V0h-68c-4-19-2-42-9-58-42 33-92 70-161 70zm23-66c62-5 93-31 133-65v-135c-89 14-171 22-207 80-36 57 6 125 74 120" id="E"/><path fill="#3d4752" d="M235 12C135 12 96-49 96-150v-269H24v-62l76-5 10-136h69v136h131v67H179v270c1 58 17 94 75 94 19 0 41-7 55-13l16 62c-25 8-58 18-90 18" id="F"/><g id="d"><use transform="matrix(0.018,0,0,0.018,0,0)" xlink:href="#B"/><use transform="matrix(0.018,0,0,0.018,9.989999999999998,0)" xlink:href="#E"/><use transform="matrix(0.018,0,0,0.018,19.205999999999996,0)" xlink:href="#F"/><use transform="matrix(0.018,0,0,0.018,25.109999999999992,0)" xlink:href="#z"/></g><path fill="#3d4752" d="M374-191C441-40 261 57 110-7 79-20 51-36 28-55l41-55c40 31 77 52 143 58 87 8 128-92 60-134-81-50-214-50-220-174-7-157 230-170 318-83l-39 52c-30-22-63-38-111-43-80-8-120 85-56 122 69 40 177 47 210 121" id="G"/><g id="e"><use transform="matrix(0.018,0,0,0.018,0,0)" xlink:href="#G"/><use transform="matrix(0.018,0,0,0.018,7.542,0)" xlink:href="#v"/><use transform="matrix(0.018,0,0,0.018,17.334,0)" xlink:href="#w"/><use transform="matrix(0.018,0,0,0.018,27.323999999999998,0)" xlink:href="#w"/><use transform="matrix(0.018,0,0,0.018,37.313999999999986,0)" xlink:href="#x"/><use transform="matrix(0.018,0,0,0.018,41.903999999999996,0)" xlink:href="#y"/><use transform="matrix(0.018,0,0,0.018,46.331999999999994,0)" xlink:href="#z"/><use transform="matrix(0.018,0,0,0.018,55.25999999999999,0)" xlink:href="#A"/></g><path fill="#3d4752" d="M564-331C562-123 464-4 258 0H90v-656h164c204-1 312 119 310 325zm-86 0c0-161-72-257-230-257h-75v520h75c158 1 230-103 230-263" id="H"/><g id="f"><use transform="matrix(0.018,0,0,0.018,0,0)" xlink:href="#H"/><use transform="matrix(0.018,0,0,0.018,11.069999999999999,0)" xlink:href="#z"/><use transform="matrix(0.018,0,0,0.018,19.997999999999998,0)" xlink:href="#x"/><use transform="matrix(0.018,0,0,0.018,24.587999999999997,0)" xlink:href="#y"/><use transform="matrix(0.018,0,0,0.018,29.016,0)" xlink:href="#C"/><use transform="matrix(0.018,0,0,0.018,37.349999999999994,0)" xlink:href="#z"/><use transform="matrix(0.018,0,0,0.018,46.27799999999999,0)" xlink:href="#A"/><use transform="matrix(0.018,0,0,0.018,52.86599999999999,0)" xlink:href="#D"/></g><path fill="#3d4752" d="M613-331c0 199-89 343-281 343C139 12 52-132 52-331c0-198 88-337 280-337 191 0 281 139 281 337zm-475 0c0 148 53 270 194 270s194-122 194-270c0-147-54-264-194-264S138-478 138-331" id="I"/><g id="g"><use transform="matrix(0.018,0,0,0.018,0,0)" xlink:href="#I"/><use transform="matrix(0.018,0,0,0.018,11.952,0)" xlink:href="#A"/><use transform="matrix(0.018,0,0,0.018,18.018,0)" xlink:href="#B"/><use transform="matrix(0.018,0,0,0.018,28.008,0)" xlink:href="#z"/><use transform="matrix(0.018,0,0,0.018,36.936,0)" xlink:href="#A"/></g><g id="h"><use transform="matrix(0.018,0,0,0.018,0,0)" xlink:href="#H"/><use transform="matrix(0.018,0,0,0.018,11.069999999999999,0)" xlink:href="#z"/><use transform="matrix(0.018,0,0,0.018,19.745999999999995,0)" xlink:href="#F"/><use transform="matrix(0.018,0,0,0.018,25.505999999999993,0)" xlink:href="#E"/><use transform="matrix(0.018,0,0,0.018,34.721999999999994,0)" xlink:href="#y"/><use transform="matrix(0.018,0,0,0.018,39.14999999999999,0)" xlink:href="#x"/></g><g id="i"><use transform="matrix(0.018,0,0,0.018,0,0)" xlink:href="#H"/><use transform="matrix(0.018,0,0,0.018,11.069999999999999,0)" xlink:href="#z"/><use transform="matrix(0.018,0,0,0.018,19.997999999999998,0)" xlink:href="#x"/><use transform="matrix(0.018,0,0,0.018,24.587999999999997,0)" xlink:href="#y"/><use transform="matrix(0.018,0,0,0.018,29.016,0)" xlink:href="#C"/><use transform="matrix(0.018,0,0,0.018,37.349999999999994,0)" xlink:href="#z"/><use transform="matrix(0.018,0,0,0.018,46.27799999999999,0)" xlink:href="#A"/><use transform="matrix(0.018,0,0,0.018,52.86599999999999,0)" xlink:href="#D"/></g><path fill="#3d4752" d="M271 12C125 12 46-91 46-242c0-152 79-256 225-256s225 104 225 256c0 151-79 254-225 254zm0-442c-100 0-140 84-140 188S172-56 271-56s140-82 140-186-40-188-140-188" id="J"/><g id="j"><use transform="matrix(0.018,0,0,0.018,0,0)" xlink:href="#J"/><use transform="matrix(0.018,0,0,0.018,9.755999999999998,0)" xlink:href="#A"/><use transform="matrix(0.018,0,0,0.018,15.822,0)" xlink:href="#B"/><use transform="matrix(0.018,0,0,0.018,25.811999999999998,0)" xlink:href="#z"/><use transform="matrix(0.018,0,0,0.018,34.739999999999995,0)" xlink:href="#A"/></g><g id="k"><use transform="matrix(0.018,0,0,0.018,0,0)" xlink:href="#B"/><use transform="matrix(0.018,0,0,0.018,9.989999999999998,0)" xlink:href="#z"/><use transform="matrix(0.018,0,0,0.018,18.665999999999997,0)" xlink:href="#F"/><use transform="matrix(0.018,0,0,0.018,24.425999999999995,0)" xlink:href="#E"/><use transform="matrix(0.018,0,0,0.018,33.641999999999996,0)" xlink:href="#y"/><use transform="matrix(0.018,0,0,0.018,38.07,0)" xlink:href="#x"/></g><path fill="#3d4752" d="M533-463c0 144-98 200-242 203H173V0H90v-656h201c145 0 242 48 242 193zm-83 0c5-141-139-126-277-126v261h108c107-1 165-34 169-135" id="K"/><path fill="#3d4752" d="M274 12C124 12 46-89 46-242c0-154 84-249 234-256 64-3 108 29 142 58l-41 53c-27-22-53-43-98-43-104 0-152 81-152 188S178-60 281-56c50 2 87-25 114-49l37 54c-39 34-91 63-158 63" id="L"/><g id="l"><use transform="matrix(0.018,0,0,0.018,0,0)" xlink:href="#K"/><use transform="matrix(0.018,0,0,0.018,10.367999999999999,0)" xlink:href="#A"/><use transform="matrix(0.018,0,0,0.018,16.433999999999997,0)" xlink:href="#J"/><use transform="matrix(0.018,0,0,0.018,26.189999999999998,0)" xlink:href="#B"/><use transform="matrix(0.018,0,0,0.018,36.17999999999999,0)" xlink:href="#v"/><use transform="matrix(0.018,0,0,0.018,45.971999999999994,0)" xlink:href="#L"/><use transform="matrix(0.018,0,0,0.018,54.17999999999999,0)" xlink:href="#F"/></g><g id="m"><use transform="matrix(0.018,0,0,0.018,0,0)" xlink:href="#w"/><use transform="matrix(0.018,0,0,0.018,9.989999999999998,0)" xlink:href="#A"/><use transform="matrix(0.018,0,0,0.018,16.055999999999997,0)" xlink:href="#J"/><use transform="matrix(0.018,0,0,0.018,25.811999999999998,0)" xlink:href="#B"/><use transform="matrix(0.018,0,0,0.018,35.80199999999999,0)" xlink:href="#v"/><use transform="matrix(0.018,0,0,0.018,45.593999999999994,0)" xlink:href="#L"/><use transform="matrix(0.018,0,0,0.018,53.80199999999999,0)" xlink:href="#F"/></g><g id="n"><use transform="matrix(0.018,0,0,0.018,0,0)" xlink:href="#H"/><use transform="matrix(0.018,0,0,0.018,11.069999999999999,0)" xlink:href="#z"/><use transform="matrix(0.018,0,0,0.018,19.745999999999995,0)" xlink:href="#F"/><use transform="matrix(0.018,0,0,0.018,25.505999999999993,0)" xlink:href="#E"/><use transform="matrix(0.018,0,0,0.018,34.721999999999994,0)" xlink:href="#y"/><use transform="matrix(0.018,0,0,0.018,39.14999999999999,0)" xlink:href="#x"/></g><path fill="#3d4752" d="M248 12C114 10 43-95 47-242c4-146 72-256 211-256 68 0 98 26 141 58l8-46h66v691h-83c0-87-2-177 4-259-35 31-84 66-146 66zm24-441c-97 0-138 83-140 186-2 104 39 186 134 186 59 0 90-30 124-67v-254c-35-31-64-51-118-51" id="M"/><path fill="#3d4752" d="M297-427c-68 0-89 36-133 75V0H82v-486h68l7 70h3c43-40 85-82 163-82 111 0 147 74 148 190V0h-82v-297c-1-82-18-130-92-130" id="N"/><g id="o"><use transform="matrix(0.018,0,0,0.018,0,0)" xlink:href="#M"/><use transform="matrix(0.018,0,0,0.018,9.899999999999999,0)" xlink:href="#v"/><use transform="matrix(0.018,0,0,0.018,19.692,0)" xlink:href="#E"/><use transform="matrix(0.018,0,0,0.018,28.908,0)" xlink:href="#N"/><use transform="matrix(0.018,0,0,0.018,38.754000000000005,0)" xlink:href="#F"/><use transform="matrix(0.018,0,0,0.018,44.83800000000001,0)" xlink:href="#y"/><use transform="matrix(0.018,0,0,0.018,49.266000000000005,0)" xlink:href="#F"/><use transform="matrix(0.018,0,0,0.018,55.350000000000016,0)" xlink:href="#D"/></g><g id="p"><use transform="matrix(0.018,0,0,0.018,0,0)" xlink:href="#I"/><use transform="matrix(0.018,0,0,0.018,11.952,0)" xlink:href="#A"/><use transform="matrix(0.018,0,0,0.018,18.018,0)" xlink:href="#B"/><use transform="matrix(0.018,0,0,0.018,28.008,0)" xlink:href="#z"/><use transform="matrix(0.018,0,0,0.018,36.936,0)" xlink:href="#A"/></g><path fill="#3d4752" d="M297-427c-68 0-89 36-133 75V0H82v-712h82c0 99 1 199-3 294 44-38 85-80 162-80 111 0 147 74 148 190V0h-82v-297c-1-82-18-130-92-130" id="O"/><g id="q"><use transform="matrix(0.018,0,0,0.018,0,0)" xlink:href="#O"/><use transform="matrix(0.018,0,0,0.018,9.792,0)" xlink:href="#z"/><use transform="matrix(0.018,0,0,0.018,18.467999999999993,0)" xlink:href="#E"/><use transform="matrix(0.018,0,0,0.018,27.683999999999997,0)" xlink:href="#B"/><use transform="matrix(0.018,0,0,0.018,37.67399999999999,0)" xlink:href="#M"/><use transform="matrix(0.018,0,0,0.018,47.57399999999999,0)" xlink:href="#v"/><use transform="matrix(0.018,0,0,0.018,57.36599999999999,0)" xlink:href="#E"/><use transform="matrix(0.018,0,0,0.018,66.582,0)" xlink:href="#A"/><use transform="matrix(0.018,0,0,0.018,72.82799999999999,0)" xlink:href="#F"/><use transform="matrix(0.018,0,0,0.018,78.73199999999997,0)" xlink:href="#z"/><use transform="matrix(0.018,0,0,0.018,87.65999999999998,0)" xlink:href="#A"/><use transform="matrix(0.018,0,0,0.018,93.72599999999997,0)" xlink:href="#G"/></g><path fill="#3d4752" d="M90-656h83v275h305v-275h84V0h-84v-309H173V0H90v-656" id="P"/><g id="r"><use transform="matrix(0.018,0,0,0.018,0,0)" xlink:href="#P"/><use transform="matrix(0.018,0,0,0.018,11.735999999999999,0)" xlink:href="#z"/><use transform="matrix(0.018,0,0,0.018,20.412,0)" xlink:href="#E"/><use transform="matrix(0.018,0,0,0.018,29.628,0)" xlink:href="#B"/><use transform="matrix(0.018,0,0,0.018,39.617999999999995,0)" xlink:href="#M"/><use transform="matrix(0.018,0,0,0.018,49.517999999999994,0)" xlink:href="#v"/><use transform="matrix(0.018,0,0,0.018,59.309999999999995,0)" xlink:href="#E"/><use transform="matrix(0.018,0,0,0.018,68.526,0)" xlink:href="#A"/><use transform="matrix(0.018,0,0,0.018,74.77199999999999,0)" xlink:href="#F"/><use transform="matrix(0.018,0,0,0.018,80.67599999999999,0)" xlink:href="#z"/><use transform="matrix(0.018,0,0,0.018,89.60399999999997,0)" xlink:href="#A"/><use transform="matrix(0.018,0,0,0.018,95.66999999999997,0)" xlink:href="#G"/></g><path fill="#3d4752" d="M297 12c-57 0-104-28-139-60h-3l-7 48H82v-712h82c0 94 1 190-2 282 38-32 88-68 152-68 139 0 193 105 193 247 0 150-68 263-210 263zm125-262c0-101-29-177-128-179-39 0-83 22-130 66v255c33 29 70 51 119 51 100 0 139-86 139-193" id="Q"/><g id="s"><use transform="matrix(0.018,0,0,0.018,0,0)" xlink:href="#Q"/><use transform="matrix(0.018,0,0,0.018,9.989999999999998,0)" xlink:href="#A"/><use transform="matrix(0.018,0,0,0.018,15.786,0)" xlink:href="#E"/><use transform="matrix(0.018,0,0,0.018,25.001999999999995,0)" xlink:href="#N"/><use transform="matrix(0.018,0,0,0.018,34.848,0)" xlink:href="#L"/><use transform="matrix(0.018,0,0,0.018,43.056,0)" xlink:href="#O"/></g><path fill="#3d4752" d="M548-192C547 22 309 4 90 0v-656c190 2 420-31 420 160 0 75-46 128-114 143v4c89 14 152 59 152 157zM428-489c4-116-137-100-255-101v214h97c99 0 155-27 158-113zm38 293c0-131-156-119-293-118v248c143 4 293 8 293-130" id="R"/><g id="t"><use transform="matrix(0.018,0,0,0.018,0,0)" xlink:href="#R"/><use transform="matrix(0.018,0,0,0.018,10.584,0)" xlink:href="#A"/><use transform="matrix(0.018,0,0,0.018,16.38,0)" xlink:href="#E"/><use transform="matrix(0.018,0,0,0.018,25.595999999999997,0)" xlink:href="#N"/><use transform="matrix(0.018,0,0,0.018,35.44199999999999,0)" xlink:href="#L"/><use transform="matrix(0.018,0,0,0.018,43.64999999999999,0)" xlink:href="#O"/></g></defs></g></svg>